<svg width="108" height="24" viewBox="0 0 108 24" fill="none" xmlns="http://www.w3.org/2000/svg">
<rect x="1" y="4" width="1" height="4" fill="#FF6A64"/>
<rect width="1" height="4" transform="matrix(-1 0 0 1 22 4)" fill="#FF6A64"/>
<rect x="3" y="2" width="1" height="7" fill="#FF6A64"/>
<rect x="7" y="6" width="1" height="5" fill="#FF6A64"/>
<rect width="1" height="5" transform="matrix(-1 0 0 1 16 6)" fill="#FF6A64"/>
<rect x="6" y="7" width="1" height="4" fill="#FF6A64"/>
<rect width="1" height="4" transform="matrix(-1 0 0 1 17 7)" fill="#FF6A64"/>
<rect x="5" y="8" width="1" height="4" fill="#FF6A64"/>
<rect x="4" y="17" width="1" height="2" fill="#FF6A64"/>
<rect width="1" height="2" transform="matrix(-1 0 0 1 19 17)" fill="#FF6A64"/>
<rect width="1" height="2" transform="matrix(-1 0 0 1 20 17)" fill="#FF6A64"/>
<rect width="1" height="2" transform="matrix(-1 0 0 1 4 17)" fill="#FF6A64"/>
<rect x="4" y="19" width="1" height="2" fill="#FF6A64"/>
<rect width="1" height="1" transform="matrix(-1 0 0 1 19 19)" fill="#FF6A64"/>
<rect x="3" y="19" width="1" height="1" fill="#FF6A64"/>
<rect width="1" height="1" transform="matrix(-1 0 0 1 20 19)" fill="#FF6A64"/>
<rect x="1" y="13" width="1" height="4" fill="#FF6A64"/>
<rect x="2" y="11" width="1" height="8" fill="#FF6A64"/>
<rect x="20" y="11" width="1" height="8" fill="#FF6A64"/>
<rect width="1" height="4" transform="matrix(-1 0 0 1 22 13)" fill="#FF6A64"/>
<rect x="5" y="14" width="1" height="6" fill="#FF6A64"/>
<rect width="1" height="6" transform="matrix(-1 0 0 1 18 14)" fill="#FF6A64"/>
<rect width="1" height="4" transform="matrix(-1 0 0 1 18 8)" fill="#FF6A64"/>
<rect x="4" y="9" width="1" height="2" fill="#FF6A64"/>
<rect width="1" height="2" transform="matrix(-1 0 0 1 19 9)" fill="#FF6A64"/>
<rect x="3" y="10" width="1" height="5" fill="#FF6A64"/>
<rect x="4" y="11" width="1" height="4" fill="#FF6A64"/>
<rect width="1" height="5" transform="matrix(-1 0 0 1 20 10)" fill="#FF6A64"/>
<rect width="1" height="4" transform="matrix(-1 0 0 1 19 11)" fill="#FF6A64"/>
<rect width="1" height="7" transform="matrix(-1 0 0 1 20 2)" fill="#FF6A64"/>
<rect x="2" y="3" width="1" height="6" fill="#FF6A64"/>
<rect width="1" height="6" transform="matrix(-1 0 0 1 21 3)" fill="#FF6A64"/>
<rect x="4" y="2" width="1" height="6" fill="#FF6A64"/>
<rect width="1" height="6" transform="matrix(-1 0 0 1 19 2)" fill="#FF6A64"/>
<rect x="5" y="3" width="1" height="4" fill="#FF6A64"/>
<rect width="1" height="4" transform="matrix(-1 0 0 1 18 3)" fill="#FF6A64"/>
<rect x="6" y="3" width="1" height="3" fill="#FF6A64"/>
<rect x="9" y="6" width="1" height="9" fill="#FF6A64"/>
<rect x="13" y="6" width="1" height="9" fill="#FF6A64"/>
<rect x="10" y="5" width="1" height="8" fill="#FF6A64"/>
<rect x="11" y="5" width="1" height="8" fill="#FF6A64"/>
<rect x="12" y="5" width="1" height="8" fill="#FF6A64"/>
<rect x="8" y="5" width="1" height="7" fill="#FF6A64"/>
<rect x="14" y="5" width="1" height="7" fill="#FF6A64"/>
<rect x="7" y="20" width="1" height="1" fill="#FF6A64"/>
<rect x="15" y="20" width="1" height="1" fill="#FF6A64"/>
<rect x="14" y="20" width="1" height="1" fill="#FF6A64"/>
<rect x="8" y="20" width="1" height="1" fill="#FF6A64"/>
<rect x="8" y="21" width="1" height="1" fill="#FF6A64"/>
<rect x="9" y="21" width="1" height="1" fill="#FF6A64"/>
<rect x="10" y="21" width="1" height="1" fill="#FF6A64"/>
<rect x="11" y="21" width="1" height="1" fill="#FF6A64"/>
<rect x="12" y="21" width="1" height="1" fill="#FF6A64"/>
<rect x="13" y="21" width="1" height="1" fill="#FF6A64"/>
<rect x="14" y="21" width="1" height="1" fill="#FF6A64"/>
<rect width="1" height="3" transform="matrix(-1 0 0 1 17 3)" fill="#FF6A64"/>
<rect x="14" y="14" width="1" height="1" fill="#FF6A64"/>
<rect width="1" height="1" transform="matrix(-1 0 0 1 9 14)" fill="#FF6A64"/>
<rect width="1" height="2" transform="matrix(-1 0 0 1 11 15)" fill="#FF9995"/>
<rect width="1" height="1" transform="matrix(-1 0 0 1 10 17)" fill="#FF6A64"/>
<rect width="1" height="1" transform="matrix(-1 0 0 1 12 17)" fill="#FF6A64"/>
<rect width="1" height="1" transform="matrix(-1 0 0 1 14 17)" fill="#FF6A64"/>
<rect width="1" height="2" transform="matrix(-1 0 0 1 13 15)" fill="#FF9995"/>
<rect x="15" y="14" width="1" height="4" fill="#FF6A64"/>
<rect width="1" height="4" transform="matrix(-1 0 0 1 8 14)" fill="#FF6A64"/>
<rect x="16" y="15" width="1" height="6" fill="#FF6A64"/>
<rect width="1" height="6" transform="matrix(-1 0 0 1 7 15)" fill="#FF6A64"/>
<rect x="8" y="15" width="1" height="5" fill="#FF9995"/>
<rect x="14" y="15" width="1" height="5" fill="#FF9995"/>
<rect x="9" y="15" width="1" height="1" fill="#FF9995"/>
<rect x="13" y="15" width="1" height="1" fill="#FF9995"/>
<rect x="9" y="17" width="1" height="4" fill="#FF9995"/>
<rect x="13" y="17" width="1" height="4" fill="#FF9995"/>
<rect x="10" y="18" width="1" height="3" fill="#FF9995"/>
<rect x="11" y="19" width="1" height="2" fill="#FF9995"/>
<rect x="12" y="18" width="1" height="3" fill="#FF9995"/>
<rect x="7" y="16" width="1" height="4" fill="#FF9995"/>
<rect x="15" y="16" width="1" height="4" fill="#FF9995"/>
<rect x="3" y="1" width="1" height="1" fill="#222222"/>
<rect width="1" height="1" transform="matrix(-1 0 0 1 20 1)" fill="#222222"/>
<rect x="2" y="2" width="1" height="1" fill="#222222"/>
<rect width="1" height="1" transform="matrix(-1 0 0 1 21 2)" fill="#222222"/>
<rect x="7" y="3" width="1" height="2" fill="#222222"/>
<rect width="1" height="2" transform="matrix(-1 0 0 1 16 3)" fill="#222222"/>
<rect x="8" y="4" width="2" height="1" fill="#222222"/>
<rect width="2" height="1" transform="matrix(-1 0 0 1 15 4)" fill="#222222"/>
<rect x="10" y="3" width="1" height="1" fill="#222222"/>
<rect x="11" y="3" width="1" height="1" fill="#222222"/>
<rect x="12" y="3" width="1" height="1" fill="#222222"/>
<rect x="5" y="2" width="2" height="1" fill="#222222"/>
<rect width="2" height="1" transform="matrix(-1 0 0 1 18 2)" fill="#222222"/>
<rect x="2" y="9" width="2" height="1" fill="#222222"/>
<rect width="2" height="1" transform="matrix(-1 0 0 1 21 9)" fill="#222222"/>
<rect x="1" y="3" width="1" height="1" fill="#222222"/>
<rect width="1" height="1" transform="matrix(-1 0 0 1 22 3)" fill="#222222"/>
<rect x="1" y="8" width="1" height="1" fill="#222222"/>
<rect x="2" y="10" width="1" height="1" fill="#222222"/>
<rect x="2" y="19" width="1" height="1" fill="#222222"/>
<rect x="3" y="20" width="1" height="1" fill="#222222"/>
<rect x="4" y="21" width="1" height="1" fill="#222222"/>
<rect x="5" y="22" width="2" height="1" fill="#222222"/>
<rect x="16" y="22" width="2" height="1" fill="#222222"/>
<rect x="7" y="23" width="1" height="1" fill="#222222"/>
<rect x="8" y="23" width="1" height="1" fill="#222222"/>
<rect x="9" y="23" width="1" height="1" fill="#222222"/>
<rect x="10" y="23" width="1" height="1" fill="#222222"/>
<rect x="11" y="23" width="1" height="1" fill="#222222"/>
<rect x="12" y="23" width="1" height="1" fill="#222222"/>
<rect x="13" y="23" width="1" height="1" fill="#222222"/>
<rect x="14" y="23" width="1" height="1" fill="#222222"/>
<rect x="15" y="23" width="1" height="1" fill="#222222"/>
<rect x="1" y="11" width="1" height="2" fill="#222222"/>
<rect x="5" y="12" width="4" height="2" fill="#222222"/>
<rect x="14" y="12" width="4" height="2" fill="#222222"/>
<rect x="6" y="11" width="2" height="1" fill="#222222"/>
<rect x="15" y="11" width="2" height="1" fill="#222222"/>
<rect x="6" y="14" width="2" height="1" fill="#222222"/>
<rect x="10" y="13" width="1" height="2" fill="#222222"/>
<rect x="11" y="13" width="1" height="2" fill="#222222"/>
<rect x="12" y="13" width="1" height="2" fill="#222222"/>
<rect x="11" y="15" width="1" height="2" fill="#222222"/>
<rect x="10" y="17" width="1" height="1" fill="#222222"/>
<rect x="11" y="17" width="1" height="1" fill="#222222"/>
<rect x="11" y="18" width="1" height="1" fill="#222222"/>
<rect x="12" y="17" width="1" height="1" fill="#222222"/>
<rect x="13" y="16" width="1" height="1" fill="#222222"/>
<rect x="9" y="16" width="1" height="1" fill="#222222"/>
<rect x="15" y="14" width="2" height="1" fill="#222222"/>
<rect x="1" y="17" width="1" height="2" fill="#222222"/>
<rect y="13" width="1" height="4" fill="#222222"/>
<rect x="4" y="8" width="1" height="1" fill="#222222"/>
<rect x="5" y="7" width="1" height="1" fill="#222222"/>
<rect x="5" y="6" width="1" height="1" fill="#222222"/>
<rect x="4" y="5" width="1" height="1" fill="#222222"/>
<rect x="6" y="6" width="1" height="1" fill="#222222"/>
<rect x="7" y="5" width="1" height="1" fill="#222222"/>
<rect x="15" y="5" width="1" height="1" fill="#222222"/>
<rect x="16" y="6" width="1" height="1" fill="#222222"/>
<rect x="17" y="7" width="1" height="1" fill="#222222"/>
<rect x="17" y="6" width="1" height="1" fill="#222222"/>
<rect x="18" y="5" width="1" height="1" fill="#222222"/>
<rect x="18" y="8" width="1" height="1" fill="#222222"/>
<rect x="20" y="10" width="1" height="1" fill="#222222"/>
<rect x="20" y="19" width="1" height="1" fill="#222222"/>
<rect x="19" y="20" width="1" height="1" fill="#222222"/>
<rect x="18" y="21" width="1" height="1" fill="#222222"/>
<rect x="21" y="11" width="1" height="2" fill="#222222"/>
<rect x="21" y="17" width="1" height="2" fill="#222222"/>
<rect x="22" y="13" width="1" height="4" fill="#222222"/>
<rect width="1" height="1" transform="matrix(-1 0 0 1 22 8)" fill="#222222"/>
<rect y="4" width="1" height="4" fill="#222222"/>
<rect width="1" height="4" transform="matrix(-1 0 0 1 23 4)" fill="#222222"/>
<rect x="4" y="1" width="1" height="1" fill="#222222"/>
<rect width="1" height="1" transform="matrix(-1 0 0 1 19 1)" fill="#222222"/>
<rect x="3" y="15" width="2" height="2" fill="#FF9995"/>
<rect x="7" y="12" width="1" height="1" fill="#FAF9F6"/>
<rect x="3" y="15" width="1" height="1" fill="#FAF9F6"/>
<rect x="10" y="4" width="1" height="1" fill="#FF9995"/>
<rect x="11" y="4" width="1" height="1" fill="#FF9995"/>
<rect x="12" y="4" width="1" height="1" fill="#FF9995"/>
<rect x="8" y="5" width="2" height="1" fill="#FF9995"/>
<rect x="3" y="2" width="2" height="1" fill="#FF9995"/>
<rect x="18" y="2" width="2" height="1" fill="#FF9995"/>
<rect x="20" y="3" width="1" height="1" fill="#FF9995"/>
<rect x="2" y="3" width="1" height="1" fill="#FF9995"/>
<rect x="13" y="5" width="2" height="1" fill="#FF9995"/>
<rect x="3" y="16" width="1" height="1" fill="#FAF9F6"/>
<rect x="4" y="15" width="1" height="1" fill="#FAF9F6"/>
<rect x="16" y="12" width="1" height="1" fill="#FAF9F6"/>
<rect x="18" y="15" width="2" height="2" fill="#FF9995"/>
<rect width="1" height="1" transform="matrix(-1 0 0 1 19 20)" fill="#FF4941"/>
<rect width="2" height="1" transform="matrix(-1 0 0 1 20 19)" fill="#FF4941"/>
<rect width="1" height="1" transform="matrix(-1 0 0 1 8 22)" fill="#FF4941"/>
<rect width="1" height="1" transform="matrix(-1 0 0 1 9 22)" fill="#FF4941"/>
<rect width="1" height="1" transform="matrix(-1 0 0 1 10 22)" fill="#FF4941"/>
<rect width="1" height="1" transform="matrix(-1 0 0 1 11 22)" fill="#FF4941"/>
<rect width="1" height="1" transform="matrix(-1 0 0 1 12 22)" fill="#FF4941"/>
<rect width="1" height="1" transform="matrix(-1 0 0 1 13 22)" fill="#FF4941"/>
<rect width="1" height="1" transform="matrix(-1 0 0 1 14 22)" fill="#FF4941"/>
<rect width="1" height="1" transform="matrix(-1 0 0 1 15 22)" fill="#FF4941"/>
<rect width="1" height="1" transform="matrix(-1 0 0 1 16 22)" fill="#FF4941"/>
<rect width="3" height="1" transform="matrix(-1 0 0 1 8 21)" fill="#FF4941"/>
<rect width="2" height="1" transform="matrix(-1 0 0 1 6 20)" fill="#FF4941"/>
<rect width="2" height="1" transform="matrix(-1 0 0 1 5 19)" fill="#FF4941"/>
<rect width="2" height="1" transform="matrix(-1 0 0 1 5 7)" fill="#FF4941"/>
<rect x="18" y="7" width="2" height="1" fill="#FF4941"/>
<rect width="2" height="1" transform="matrix(-1 0 0 1 5 6)" fill="#FF4941"/>
<rect x="18" y="6" width="2" height="1" fill="#FF4941"/>
<rect width="2" height="1" transform="matrix(-1 0 0 1 4 8)" fill="#FF4941"/>
<rect x="19" y="8" width="2" height="1" fill="#FF4941"/>
<rect width="3" height="1" transform="matrix(-1 0 0 1 18 21)" fill="#FF4941"/>
<rect width="1" height="1" transform="matrix(-1 0 0 1 18 20)" fill="#FF4941"/>
<rect x="19" y="15" width="1" height="1" fill="#FAF9F6"/>
<rect x="19" y="16" width="1" height="1" fill="#FAF9F6"/>
<rect x="18" y="15" width="1" height="1" fill="#FAF9F6"/>
<path d="M37.5547 15.6797C37.5547 15.5495 37.5234 15.4349 37.4609 15.3359C37.4036 15.237 37.2995 15.1432 37.1484 15.0547C36.9922 14.9714 36.7865 14.8932 36.5312 14.8203C36.276 14.7474 35.9531 14.6745 35.5625 14.6016C35.0677 14.5026 34.6146 14.3802 34.2031 14.2344C33.7969 14.0833 33.4479 13.901 33.1562 13.6875C32.8646 13.4792 32.6354 13.237 32.4688 12.9609C32.3073 12.6849 32.2266 12.3672 32.2266 12.0078C32.2266 11.6589 32.3099 11.3255 32.4766 11.0078C32.6432 10.6901 32.8828 10.4115 33.1953 10.1719C33.5078 9.93229 33.888 9.74219 34.3359 9.60156C34.7839 9.46094 35.2891 9.39062 35.8516 9.39062C36.4401 9.39062 36.9688 9.46094 37.4375 9.60156C37.9062 9.73698 38.3047 9.92448 38.6328 10.1641C38.9557 10.4089 39.2031 10.6979 39.375 11.0312C39.5469 11.3646 39.6328 11.7266 39.6328 12.1172H37.4609C37.4609 11.9766 37.4375 11.8464 37.3906 11.7266C37.3438 11.6016 37.2734 11.4896 37.1797 11.3906C37.0495 11.2604 36.8724 11.1562 36.6484 11.0781C36.4297 11 36.1641 10.9609 35.8516 10.9609C35.5859 10.9609 35.3542 10.987 35.1562 11.0391C34.9583 11.0911 34.7969 11.1641 34.6719 11.2578C34.5573 11.3411 34.4688 11.4401 34.4062 11.5547C34.349 11.6641 34.3203 11.7812 34.3203 11.9062C34.3203 12.0312 34.3464 12.1484 34.3984 12.2578C34.4505 12.362 34.5443 12.4557 34.6797 12.5391C34.8099 12.6276 34.9896 12.7083 35.2188 12.7812C35.4479 12.849 35.7396 12.9089 36.0938 12.9609C36.6042 13.0443 37.0781 13.151 37.5156 13.2812C37.9531 13.4115 38.3307 13.5781 38.6484 13.7812C38.9661 13.9896 39.2135 14.2422 39.3906 14.5391C39.5729 14.8307 39.6641 15.1797 39.6641 15.5859C39.6641 15.9609 39.5729 16.3073 39.3906 16.625C39.2135 16.9375 38.9609 17.2083 38.6328 17.4375C38.2995 17.6667 37.8984 17.8464 37.4297 17.9766C36.9609 18.1016 36.4375 18.1641 35.8594 18.1641C35.224 18.1641 34.6615 18.0807 34.1719 17.9141C33.6875 17.7474 33.2812 17.5286 32.9531 17.2578C32.625 16.9922 32.375 16.6901 32.2031 16.3516C32.0365 16.0078 31.9531 15.6641 31.9531 15.3203H34.0234C34.0391 15.5495 34.1016 15.7474 34.2109 15.9141C34.3203 16.0755 34.4609 16.2057 34.6328 16.3047C34.8047 16.4089 35 16.4844 35.2188 16.5312C35.4427 16.5781 35.6719 16.6016 35.9062 16.6016C36.1875 16.6016 36.4323 16.5781 36.6406 16.5312C36.8542 16.4792 37.0286 16.4115 37.1641 16.3281C37.2943 16.2448 37.3906 16.1484 37.4531 16.0391C37.5208 15.9297 37.5547 15.8099 37.5547 15.6797ZM41.4922 13.7031C41.4922 13.0625 41.5651 12.4766 41.7109 11.9453C41.8568 11.4141 42.0729 10.9583 42.3594 10.5781C42.6406 10.2031 42.987 9.91146 43.3984 9.70312C43.8151 9.49479 44.2917 9.39062 44.8281 9.39062C45.1094 9.39062 45.3672 9.42188 45.6016 9.48438C45.8411 9.54688 46.0599 9.63542 46.2578 9.75C46.3984 9.83333 46.5312 9.92969 46.6562 10.0391C46.7812 10.1484 46.8984 10.2708 47.0078 10.4062L47.1406 9.54688H49.0547V21.25H46.875V17.2812C46.7656 17.4062 46.6458 17.5182 46.5156 17.6172C46.3854 17.7161 46.25 17.8021 46.1094 17.875C45.9271 17.9635 45.7266 18.0312 45.5078 18.0781C45.2943 18.1302 45.0625 18.1562 44.8125 18.1562C44.2812 18.1562 43.8099 18.0495 43.3984 17.8359C42.987 17.6172 42.6406 17.3151 42.3594 16.9297C42.0781 16.5495 41.862 16.099 41.7109 15.5781C41.5651 15.0521 41.4922 14.4818 41.4922 13.8672V13.7031ZM43.6641 13.8672C43.6641 14.2161 43.6953 14.5443 43.7578 14.8516C43.8203 15.1589 43.9193 15.4271 44.0547 15.6562C44.1901 15.8906 44.3646 16.0755 44.5781 16.2109C44.7969 16.3464 45.0599 16.4141 45.3672 16.4141C45.5547 16.4141 45.724 16.3958 45.875 16.3594C46.0312 16.3177 46.1719 16.263 46.2969 16.1953C46.4219 16.1224 46.5312 16.0339 46.625 15.9297C46.7188 15.8203 46.8021 15.6979 46.875 15.5625V11.9688C46.8021 11.8385 46.7188 11.724 46.625 11.625C46.5312 11.5208 46.4219 11.4323 46.2969 11.3594C46.1771 11.2917 46.0391 11.2396 45.8828 11.2031C45.7318 11.1667 45.5651 11.1484 45.3828 11.1484C45.0755 11.1484 44.8125 11.2161 44.5938 11.3516C44.3802 11.4818 44.2057 11.6615 44.0703 11.8906C43.9297 12.1198 43.8255 12.3906 43.7578 12.7031C43.6953 13.0104 43.6641 13.3438 43.6641 13.7031V13.8672ZM51.7734 6H56.5V16.2344H58.9219V18H51.7734V16.2344H54.3047V7.77344H51.7734V6ZM68.1094 19.6953H60.9844V18H68.1094V19.6953ZM78.1562 13.8594C78.1562 14.2656 78.1276 14.651 78.0703 15.0156C78.013 15.375 77.9297 15.7083 77.8203 16.0156C77.7005 16.3542 77.5417 16.6615 77.3438 16.9375C77.151 17.2135 76.9219 17.4427 76.6562 17.625C76.4167 17.7969 76.1458 17.9271 75.8438 18.0156C75.5469 18.1094 75.2188 18.1562 74.8594 18.1562C74.5312 18.1562 74.2318 18.1146 73.9609 18.0312C73.6953 17.9531 73.4557 17.8359 73.2422 17.6797C73.1276 17.6016 73.0208 17.5156 72.9219 17.4219C72.8229 17.3229 72.7292 17.2161 72.6406 17.1016L72.5391 18H70.5859V6H72.7578V10.3125C72.862 10.1927 72.974 10.0833 73.0938 9.98438C73.2135 9.88021 73.3411 9.79167 73.4766 9.71875C73.6693 9.60938 73.8776 9.52865 74.1016 9.47656C74.3307 9.41927 74.5781 9.39062 74.8438 9.39062C75.2083 9.39062 75.5417 9.4375 75.8438 9.53125C76.151 9.625 76.4245 9.76042 76.6641 9.9375C76.8568 10.0729 77.0312 10.237 77.1875 10.4297C77.3438 10.6172 77.4818 10.8229 77.6016 11.0469C77.7891 11.4062 77.9271 11.8099 78.0156 12.2578C78.1094 12.7057 78.1562 13.1849 78.1562 13.6953V13.8594ZM75.9844 13.6953C75.9844 13.4714 75.974 13.2552 75.9531 13.0469C75.9323 12.8385 75.8984 12.6432 75.8516 12.4609C75.7943 12.2474 75.7188 12.0573 75.625 11.8906C75.5365 11.7188 75.401 11.5625 75.2188 11.4219C75.099 11.3333 74.9635 11.2682 74.8125 11.2266C74.6615 11.1797 74.4896 11.1562 74.2969 11.1562C74.0365 11.1562 73.8073 11.1927 73.6094 11.2656C73.4115 11.3385 73.2422 11.4453 73.1016 11.5859C73.0339 11.6536 72.9714 11.7318 72.9141 11.8203C72.8568 11.9036 72.8047 11.9948 72.7578 12.0938V15.4609C72.8203 15.5911 72.8906 15.7109 72.9688 15.8203C73.0521 15.9245 73.1484 16.0156 73.2578 16.0938C73.388 16.1927 73.5391 16.2682 73.7109 16.3203C73.888 16.3724 74.0885 16.3984 74.3125 16.3984C74.5052 16.3984 74.6797 16.375 74.8359 16.3281C74.9922 16.2812 75.1276 16.2161 75.2422 16.1328C75.4036 16.0182 75.5339 15.8698 75.6328 15.6875C75.737 15.5 75.8151 15.2891 75.8672 15.0547C75.9089 14.8828 75.9375 14.6953 75.9531 14.4922C75.974 14.2891 75.9844 14.0781 75.9844 13.8594V13.6953ZM79.8516 13.6953C79.8516 13.0807 79.9401 12.513 80.1172 11.9922C80.2943 11.4661 80.5547 11.0104 80.8984 10.625C81.237 10.2396 81.651 9.9375 82.1406 9.71875C82.6354 9.5 83.2005 9.39062 83.8359 9.39062C84.4714 9.39062 85.0365 9.5 85.5312 9.71875C86.026 9.9375 86.4453 10.2396 86.7891 10.625C87.1276 11.0104 87.3854 11.4661 87.5625 11.9922C87.7396 12.513 87.8281 13.0807 87.8281 13.6953V13.8594C87.8281 14.4792 87.7396 15.0521 87.5625 15.5781C87.3854 16.099 87.1276 16.5521 86.7891 16.9375C86.4505 17.3229 86.0339 17.625 85.5391 17.8438C85.0443 18.0573 84.4818 18.1641 83.8516 18.1641C83.2161 18.1641 82.6484 18.0573 82.1484 17.8438C81.6536 17.625 81.237 17.3229 80.8984 16.9375C80.5547 16.5521 80.2943 16.099 80.1172 15.5781C79.9401 15.0521 79.8516 14.4792 79.8516 13.8594V13.6953ZM82.0234 13.8594C82.0234 14.2135 82.0573 14.5469 82.125 14.8594C82.1927 15.1667 82.2995 15.4349 82.4453 15.6641C82.5911 15.8984 82.7786 16.0833 83.0078 16.2188C83.2422 16.3542 83.5234 16.4219 83.8516 16.4219C84.1693 16.4219 84.4427 16.3542 84.6719 16.2188C84.901 16.0833 85.0885 15.8984 85.2344 15.6641C85.375 15.4349 85.4792 15.1667 85.5469 14.8594C85.6146 14.5469 85.6484 14.2135 85.6484 13.8594V13.6953C85.6484 13.3516 85.6146 13.026 85.5469 12.7188C85.4792 12.4115 85.375 12.1406 85.2344 11.9062C85.0885 11.6719 84.901 11.487 84.6719 11.3516C84.4427 11.2161 84.1641 11.1484 83.8359 11.1484C83.513 11.1484 83.237 11.2161 83.0078 11.3516C82.7786 11.487 82.5911 11.6719 82.4453 11.9062C82.2995 12.1406 82.1927 12.4115 82.125 12.7188C82.0573 13.026 82.0234 13.3516 82.0234 13.6953V13.8594ZM89.4609 13.6953C89.4609 13.0807 89.5495 12.513 89.7266 11.9922C89.9036 11.4661 90.1641 11.0104 90.5078 10.625C90.8464 10.2396 91.2604 9.9375 91.75 9.71875C92.2448 9.5 92.8099 9.39062 93.4453 9.39062C94.0807 9.39062 94.6458 9.5 95.1406 9.71875C95.6354 9.9375 96.0547 10.2396 96.3984 10.625C96.737 11.0104 96.9948 11.4661 97.1719 11.9922C97.349 12.513 97.4375 13.0807 97.4375 13.6953V13.8594C97.4375 14.4792 97.349 15.0521 97.1719 15.5781C96.9948 16.099 96.737 16.5521 96.3984 16.9375C96.0599 17.3229 95.6432 17.625 95.1484 17.8438C94.6536 18.0573 94.0911 18.1641 93.4609 18.1641C92.8255 18.1641 92.2578 18.0573 91.7578 17.8438C91.263 17.625 90.8464 17.3229 90.5078 16.9375C90.1641 16.5521 89.9036 16.099 89.7266 15.5781C89.5495 15.0521 89.4609 14.4792 89.4609 13.8594V13.6953ZM91.6328 13.8594C91.6328 14.2135 91.6667 14.5469 91.7344 14.8594C91.8021 15.1667 91.9089 15.4349 92.0547 15.6641C92.2005 15.8984 92.388 16.0833 92.6172 16.2188C92.8516 16.3542 93.1328 16.4219 93.4609 16.4219C93.7786 16.4219 94.0521 16.3542 94.2812 16.2188C94.5104 16.0833 94.6979 15.8984 94.8438 15.6641C94.9844 15.4349 95.0885 15.1667 95.1562 14.8594C95.224 14.5469 95.2578 14.2135 95.2578 13.8594V13.6953C95.2578 13.3516 95.224 13.026 95.1562 12.7188C95.0885 12.4115 94.9844 12.1406 94.8438 11.9062C94.6979 11.6719 94.5104 11.487 94.2812 11.3516C94.0521 11.2161 93.7734 11.1484 93.4453 11.1484C93.1224 11.1484 92.8464 11.2161 92.6172 11.3516C92.388 11.487 92.2005 11.6719 92.0547 11.9062C91.9089 12.1406 91.8021 12.4115 91.7344 12.7188C91.6667 13.026 91.6328 13.3516 91.6328 13.6953V13.8594ZM102.547 14.5078L101.562 15.4219V18H99.3906V6H101.562V12.8594L102.219 12.1094L104.555 9.54688H107.164L103.977 13.0703L107.609 18H104.945L102.547 14.5078Z" fill="#ECE9E1"/>
</svg>
