<svg width="50" height="54" viewBox="0 0 50 54" fill="none" xmlns="http://www.w3.org/2000/svg">
<path d="M2 42H0V44H2V42Z" fill="#222222"/>
<path d="M4 40H2V42H4V40Z" fill="#222222"/>
<path d="M6 38H4V40H6V38Z" fill="#222222"/>
<path d="M4 42H2V44H4V42Z" fill="#FF9995"/>
<path d="M6 42H4V44H6V42Z" fill="#FF9995"/>
<path d="M8 42H6V44H8V42Z" fill="#FF6A64"/>
<path d="M6 40H4V42H6V40Z" fill="#FF6A64"/>
<path d="M10 42H8V44H10V42Z" fill="#FF6A64"/>
<path d="M8 40H6V42H8V40Z" fill="#FF6A64"/>
<path d="M10 40H8V42H10V40Z" fill="#FF6A64"/>
<path d="M12 42H10V44H12V42Z" fill="#FF6A64"/>
<path d="M14 42H12V44H14V42Z" fill="#FF6A64"/>
<path d="M16 42H14V44H16V42Z" fill="#FF9995"/>
<path d="M32 42H30V44H32V42Z" fill="#FF9995"/>
<path d="M34 42H32V44H34V42Z" fill="#FF6A64"/>
<path d="M36 42H34V44H36V42Z" fill="#FF6A64"/>
<path d="M38 40H36V42H38V40Z" fill="#FF6A64"/>
<path d="M38 42H36V44H38V42Z" fill="#FF6A64"/>
<path d="M38 44H36V46H38V44Z" fill="#FF6A64"/>
<path d="M40 40H38V42H40V40Z" fill="#FF6A64"/>
<path d="M40 42H38V44H40V42Z" fill="#FF6A64"/>
<path d="M40 44H38V46H40V44Z" fill="#C94842"/>
<path d="M42 42H40V44H42V42Z" fill="#FF6A64"/>
<path d="M42 40H40V42H42V40Z" fill="#FF6A64"/>
<path d="M44 40H42V42H44V40Z" fill="#FF6A64"/>
<path d="M42 38H40V40H42V38Z" fill="#C94842"/>
<path d="M2 44H0V46H2V44Z" fill="#222222"/>
<path d="M4 44H2V46H4V44Z" fill="#FF9995"/>
<path d="M6 44H4V46H6V44Z" fill="#FF6A64"/>
<path d="M8 44H6V46H8V44Z" fill="#FF9995"/>
<path d="M10 44H8V46H10V44Z" fill="#222222"/>
<path d="M46 38H44V40H46V38Z" fill="#222222"/>
<path d="M44 38H42V40H44V38Z" fill="#222222"/>
<path d="M48 38H46V40H48V38Z" fill="#222222"/>
<path d="M12 44H10V46H12V44Z" fill="#C94842"/>
<path d="M14 44H12V46H14V44Z" fill="#FF6A64"/>
<path d="M16 44H14V46H16V44Z" fill="#FF6A64"/>
<path d="M18 44H16V46H18V44Z" fill="#FF9995"/>
<path d="M20 44H18V46H20V44Z" fill="#FF9995"/>
<path d="M22 44H20V46H22V44Z" fill="#FF9995"/>
<path d="M24 44H22V46H24V44Z" fill="#FF9995"/>
<path d="M26 44H24V46H26V44Z" fill="#FF9995"/>
<path d="M28 44H26V46H28V44Z" fill="#FF9995"/>
<path d="M30 44H28V46H30V44Z" fill="#FF9995"/>
<path d="M32 44H30V46H32V44Z" fill="#FF6A64"/>
<path d="M34 44H32V46H34V44Z" fill="#FF6A64"/>
<path d="M36 44H34V46H36V44Z" fill="#C94842"/>
<path d="M44 42H42V44H44V42Z" fill="#222222"/>
<path d="M42 44H40V46H42V44Z" fill="#222222"/>
<path d="M46 40H44V42H46V40Z" fill="#222222"/>
<path d="M2 46H0V48H2V46Z" fill="#222222"/>
<path d="M4 46H2V48H4V46Z" fill="#FF9995"/>
<path d="M6 46H4V48H6V46Z" fill="#FF9995"/>
<path d="M8 46H6V48H8V46Z" fill="#FF9995"/>
<path d="M10 46H8V48H10V46Z" fill="#222222"/>
<path d="M12 46H10V48H12V46Z" fill="#FF6A64"/>
<path d="M14 46H12V48H14V46Z" fill="#FF6A64"/>
<path d="M16 46H14V48H16V46Z" fill="#FF6A64"/>
<path d="M18 46H16V48H18V46Z" fill="#FF9995"/>
<path d="M20 46H18V48H20V46Z" fill="#FF9995"/>
<path d="M22 46H20V48H22V46Z" fill="#FF9995"/>
<path d="M24 46H22V48H24V46Z" fill="#FF9995"/>
<path d="M26 46H24V48H26V46Z" fill="#FF9995"/>
<path d="M28 46H26V48H28V46Z" fill="#FF9995"/>
<path d="M30 46H28V48H30V46Z" fill="#FF9995"/>
<path d="M32 46H30V48H32V46Z" fill="#FF6A64"/>
<path d="M34 46H32V48H34V46Z" fill="#FF6A64"/>
<path d="M36 46H34V48H36V46Z" fill="#FF6A64"/>
<path d="M38 46H36V48H38V46Z" fill="#222222"/>
<path d="M4 48H2V50H4V48Z" fill="#222222"/>
<path d="M6 48H4V50H6V48Z" fill="#222222"/>
<path d="M8 48H6V50H8V48Z" fill="#222222"/>
<path d="M10 48H8V50H10V48Z" fill="#C94842"/>
<path d="M12 48H10V50H12V48Z" fill="#C94842"/>
<path d="M14 48H12V50H14V48Z" fill="#FF6A64"/>
<path d="M16 48H14V50H16V48Z" fill="#FF6A64"/>
<path d="M18 48H16V50H18V48Z" fill="#FF6A64"/>
<path d="M20 48H18V50H20V48Z" fill="#FF9995"/>
<path d="M22 48H20V50H22V48Z" fill="#FF9995"/>
<path d="M24 48H22V50H24V48Z" fill="#FF9995"/>
<path d="M26 48H24V50H26V48Z" fill="#FF9995"/>
<path d="M28 48H26V50H28V48Z" fill="#FF9995"/>
<path d="M30 48H28V50H30V48Z" fill="#FF6A64"/>
<path d="M32 48H30V50H32V48Z" fill="#FF6A64"/>
<path d="M34 48H32V50H34V48Z" fill="#FF6A64"/>
<path d="M36 48H34V50H36V48Z" fill="#C94842"/>
<path d="M38 48H36V50H38V48Z" fill="#C94842"/>
<path d="M10 50H8V52H10V50Z" fill="#222222"/>
<path d="M12 50H10V52H12V50Z" fill="#222222"/>
<path d="M14 50H12V52H14V50Z" fill="#222222"/>
<path d="M16 50H14V52H16V50Z" fill="#C94842"/>
<path d="M18 50H16V52H18V50Z" fill="#FF6A64"/>
<path d="M20 50H18V52H20V50Z" fill="#FF6A64"/>
<path d="M22 50H20V52H22V50Z" fill="#FF6A64"/>
<path d="M24 50H22V52H24V50Z" fill="#FF6A64"/>
<path d="M26 50H24V52H26V50Z" fill="#FF6A64"/>
<path d="M28 50H26V52H28V50Z" fill="#FF6A64"/>
<path d="M30 50H28V52H30V50Z" fill="#FF6A64"/>
<path d="M32 50H30V52H32V50Z" fill="#C94842"/>
<path d="M34 50H32V52H34V50Z" fill="#222222"/>
<path d="M36 50H34V52H36V50Z" fill="#222222"/>
<path d="M38 50H36V52H38V50Z" fill="#222222"/>
<path d="M8 52H6V54H8V52Z" fill="#222222"/>
<path d="M10 52H8V54H10V52Z" fill="#FF9995"/>
<path d="M12 52H10V54H12V52Z" fill="#FF9995"/>
<path d="M14 52H12V54H14V52Z" fill="#FF9995"/>
<path d="M16 52H14V54H16V52Z" fill="#FF9995"/>
<path d="M18 52H16V54H18V52Z" fill="#222222"/>
<path d="M20 52H18V54H20V52Z" fill="#222222"/>
<path d="M22 52H20V54H22V52Z" fill="#222222"/>
<path d="M24 52H22V54H24V52Z" fill="#222222"/>
<path d="M26 52H24V54H26V52Z" fill="#222222"/>
<path d="M28 52H26V54H28V52Z" fill="#222222"/>
<path d="M30 52H28V54H30V52Z" fill="#222222"/>
<path d="M32 52H30V54H32V52Z" fill="#FF9995"/>
<path d="M34 52H32V54H34V52Z" fill="#FF9995"/>
<path d="M36 52H34V54H36V52Z" fill="#FF9995"/>
<path d="M38 52H36V54H38V52Z" fill="#FF9995"/>
<path d="M40 52H38V54H40V52Z" fill="#222222"/>
<path d="M6 2H4V4H6V2Z" fill="#222222"/>
<path d="M8 2H6V4H8V2Z" fill="#FF9995"/>
<path d="M10 2H8V4H10V2Z" fill="#FF9995"/>
<path d="M12 2H10V4H12V2Z" fill="#FF9995"/>
<path d="M12 0H10V2H12V0Z" fill="#222222"/>
<path d="M14 2H12V4H14V2Z" fill="#222222"/>
<path d="M34 2H32V4H34V2Z" fill="#222222"/>
<path d="M36 0H34V2H36V0Z" fill="#222222"/>
<path d="M38 2H36V4H38V2Z" fill="#FF9995"/>
<path d="M36 2H34V4H36V2Z" fill="#FF9995"/>
<path d="M40 2H38V4H40V2Z" fill="#FF9995"/>
<path d="M42 2H40V4H42V2Z" fill="#222222"/>
<path d="M4 4H2V6H4V4Z" fill="#222222"/>
<path d="M6 4H4V6H6V4Z" fill="#FF9995"/>
<path d="M8 4H6V6H8V4Z" fill="#FF6A64"/>
<path d="M10 4H8V6H10V4Z" fill="#FF6A64"/>
<path d="M12 4H10V6H12V4Z" fill="#FF6A64"/>
<path d="M14 4H12V6H14V4Z" fill="#FF6A64"/>
<path d="M16 4H14V6H16V4Z" fill="#222222"/>
<path d="M32 4H30V6H32V4Z" fill="#222222"/>
<path d="M34 4H32V6H34V4Z" fill="#FF6A64"/>
<path d="M36 4H34V6H36V4Z" fill="#FF6A64"/>
<path d="M38 4H36V6H38V4Z" fill="#FF6A64"/>
<path d="M40 4H38V6H40V4Z" fill="#FF6A64"/>
<path d="M42 4H40V6H42V4Z" fill="#FF9995"/>
<path d="M44 4H42V6H44V4Z" fill="#222222"/>
<path d="M2 6H0V8H2V6Z" fill="#222222"/>
<path d="M4 6H2V8H4V6Z" fill="#FF6A64"/>
<path d="M6 6H4V8H6V6Z" fill="#FF6A64"/>
<path d="M8 6H6V8H8V6Z" fill="#FF6A64"/>
<path d="M10 6H8V8H10V6Z" fill="#FF6A64"/>
<path d="M12 6H10V8H12V6Z" fill="#FF6A64"/>
<path d="M14 6H12V8H14V6Z" fill="#FF6A64"/>
<path d="M16 6H14V8H16V6Z" fill="#222222"/>
<path d="M20 8H18V10H20V8Z" fill="#C94842"/>
<path d="M22 6H20V8H22V6Z" fill="#222222"/>
<path d="M24 6H22V8H24V6Z" fill="#222222"/>
<path d="M26 6H24V8H26V6Z" fill="#222222"/>
<path d="M28 8H26V10H28V8Z" fill="#C94842"/>
<path d="M32 6H30V8H32V6Z" fill="#222222"/>
<path d="M34 6H32V8H34V6Z" fill="#FF6A64"/>
<path d="M36 6H34V8H36V6Z" fill="#FF6A64"/>
<path d="M38 6H36V8H38V6Z" fill="#FF6A64"/>
<path d="M40 6H38V8H40V6Z" fill="#FF6A64"/>
<path d="M42 6H40V8H42V6Z" fill="#FF6A64"/>
<path d="M44 6H42V8H44V6Z" fill="#FF6A64"/>
<path d="M46 6H44V8H46V6Z" fill="#222222"/>
<path d="M2 8H0V10H2V8Z" fill="#222222"/>
<path d="M4 8H2V10H4V8Z" fill="#FF6A64"/>
<path d="M6 8H4V10H6V8Z" fill="#FF6A64"/>
<path d="M8 8H6V10H8V8Z" fill="#FF6A64"/>
<path d="M10 8H8V10H10V8Z" fill="#222222"/>
<path d="M12 8H10V10H12V8Z" fill="#FF6A64"/>
<path d="M14 8H12V10H14V8Z" fill="#FF6A64"/>
<path d="M16 8H14V10H16V8Z" fill="#222222"/>
<path d="M24 8H22V10H24V8Z" fill="#FF6A64"/>
<path d="M26 8H24V10H26V8Z" fill="#FF6A64"/>
<path d="M22 8H20V10H22V8Z" fill="#FF6A64"/>
<path d="M32 8H30V10H32V8Z" fill="#222222"/>
<path d="M34 8H32V10H34V8Z" fill="#FF6A64"/>
<path d="M36 8H34V10H36V8Z" fill="#FF6A64"/>
<path d="M38 8H36V10H38V8Z" fill="#222222"/>
<path d="M40 8H38V10H40V8Z" fill="#FF6A64"/>
<path d="M42 8H40V10H42V8Z" fill="#FF6A64"/>
<path d="M44 8H42V10H44V8Z" fill="#FF6A64"/>
<path d="M46 8H44V10H46V8Z" fill="#222222"/>
<path d="M2 10H0V12H2V10Z" fill="#222222"/>
<path d="M4 10H2V12H4V10Z" fill="#FF6A64"/>
<path d="M6 10H4V12H6V10Z" fill="#FF6A64"/>
<path d="M8 10H6V12H8V10Z" fill="#FF6A64"/>
<path d="M10 10H8V12H10V10Z" fill="#C94842"/>
<path d="M12 10H10V12H12V10Z" fill="#222222"/>
<path d="M14 10H12V12H14V10Z" fill="#222222"/>
<path d="M16 10H14V12H16V10Z" fill="#C94842"/>
<path d="M18 10H16V12H18V10Z" fill="#FF6A64"/>
<path d="M20 10H18V12H20V10Z" fill="#FF6A64"/>
<path d="M22 10H20V12H22V10Z" fill="#FF6A64"/>
<path d="M24 10H22V12H24V10Z" fill="#FF6A64"/>
<path d="M26 10H24V12H26V10Z" fill="#FF6A64"/>
<path d="M28 10H26V12H28V10Z" fill="#FF6A64"/>
<path d="M30 10H28V12H30V10Z" fill="#FF6A64"/>
<path d="M32 10H30V12H32V10Z" fill="#C94842"/>
<path d="M34 10H32V12H34V10Z" fill="#222222"/>
<path d="M36 10H34V12H36V10Z" fill="#222222"/>
<path d="M38 10H36V12H38V10Z" fill="#C94842"/>
<path d="M40 10H38V12H40V10Z" fill="#FF6A64"/>
<path d="M42 10H40V12H42V10Z" fill="#FF6A64"/>
<path d="M44 10H42V12H44V10Z" fill="#FF6A64"/>
<path d="M46 10H44V12H46V10Z" fill="#222222"/>
<path d="M2 12H0V14H2V12Z" fill="#222222"/>
<path d="M4 12H2V14H4V12Z" fill="#FF6A64"/>
<path d="M6 12H4V14H6V12Z" fill="#FF6A64"/>
<path d="M8 12H6V14H8V12Z" fill="#C94842"/>
<path d="M10 12H8V14H10V12Z" fill="#C94842"/>
<path d="M12 12H10V14H12V12Z" fill="#222222"/>
<path d="M14 12H12V14H14V12Z" fill="#C94842"/>
<path d="M16 12H14V14H16V12Z" fill="#FF6A64"/>
<path d="M18 12H16V14H18V12Z" fill="#FF6A64"/>
<path d="M20 12H18V14H20V12Z" fill="#FF6A64"/>
<path d="M22 12H20V14H22V12Z" fill="#FF6A64"/>
<path d="M24 12H22V14H24V12Z" fill="#FF6A64"/>
<path d="M26 12H24V14H26V12Z" fill="#FF6A64"/>
<path d="M28 12H26V14H28V12Z" fill="#FF6A64"/>
<path d="M30 12H28V14H30V12Z" fill="#FF6A64"/>
<path d="M32 12H30V14H32V12Z" fill="#FF6A64"/>
<path d="M34 12H32V14H34V12Z" fill="#C94842"/>
<path d="M36 12H34V14H36V12Z" fill="#222222"/>
<path d="M38 12H36V14H38V12Z" fill="#C94842"/>
<path d="M40 12H38V14H40V12Z" fill="#C94842"/>
<path d="M42 12H40V14H42V12Z" fill="#FF6A64"/>
<path d="M44 12H42V14H44V12Z" fill="#FF6A64"/>
<path d="M46 12H44V14H46V12Z" fill="#222222"/>
<path d="M4 14H2V16H4V14Z" fill="#222222"/>
<path d="M6 14H4V16H6V14Z" fill="#C94842"/>
<path d="M8 14H6V16H8V14Z" fill="#C94842"/>
<path d="M10 14H8V16H10V14Z" fill="#222222"/>
<path d="M12 14H10V16H12V14Z" fill="#C94842"/>
<path d="M14 14H12V16H14V14Z" fill="#FF6A64"/>
<path d="M16 14H14V16H16V14Z" fill="#FF6A64"/>
<path d="M18 14H16V16H18V14Z" fill="#FF6A64"/>
<path d="M20 14H18V16H20V14Z" fill="#FF6A64"/>
<path d="M22 14H20V16H22V14Z" fill="#FF6A64"/>
<path d="M24 14H22V16H24V14Z" fill="#FF6A64"/>
<path d="M26 14H24V16H26V14Z" fill="#FF6A64"/>
<path d="M28 14H26V16H28V14Z" fill="#FF6A64"/>
<path d="M30 14H28V16H30V14Z" fill="#FF6A64"/>
<path d="M32 14H30V16H32V14Z" fill="#FF6A64"/>
<path d="M34 14H32V16H34V14Z" fill="#FF6A64"/>
<path d="M36 14H34V16H36V14Z" fill="#C94842"/>
<path d="M38 14H36V16H38V14Z" fill="#222222"/>
<path d="M40 14H38V16H40V14Z" fill="#C94842"/>
<path d="M42 14H40V16H42V14Z" fill="#C94842"/>
<path d="M44 14H42V16H44V14Z" fill="#222222"/>
<path d="M6 16H4V18H6V16Z" fill="#222222"/>
<path d="M8 16H6V18H8V16Z" fill="#222222"/>
<path d="M10 16H8V18H10V16Z" fill="#FF6A64"/>
<path d="M12 16H10V18H12V16Z" fill="#FF6A64"/>
<path d="M14 16H12V18H14V16Z" fill="#FF6A64"/>
<path d="M16 16H14V18H16V16Z" fill="#FF6A64"/>
<path d="M18 16H16V18H18V16Z" fill="#FF6A64"/>
<path d="M20 16H18V18H20V16Z" fill="#FF6A64"/>
<path d="M22 16H20V18H22V16Z" fill="#FF6A64"/>
<path d="M24 16H22V18H24V16Z" fill="#FF6A64"/>
<path d="M26 16H24V18H26V16Z" fill="#FF6A64"/>
<path d="M28 16H26V18H28V16Z" fill="#FF6A64"/>
<path d="M30 16H28V18H30V16Z" fill="#FF6A64"/>
<path d="M32 16H30V18H32V16Z" fill="#FF6A64"/>
<path d="M34 16H32V18H34V16Z" fill="#FF6A64"/>
<path d="M36 16H34V18H36V16Z" fill="#FF6A64"/>
<path d="M38 16H36V18H38V16Z" fill="#FF6A64"/>
<path d="M40 16H38V18H40V16Z" fill="#222222"/>
<path d="M42 16H40V18H42V16Z" fill="#222222"/>
<path d="M4 18H2V20H4V18Z" fill="#222222"/>
<path d="M6 18H4V20H6V18Z" fill="#C94842"/>
<path d="M8 18H6V20H8V18Z" fill="#FF6A64"/>
<path d="M10 18H8V20H10V18Z" fill="#FF6A64"/>
<path d="M12 18H10V20H12V18Z" fill="#FF6A64"/>
<path d="M14 18H12V20H14V18Z" fill="#222222"/>
<path d="M16 18H14V20H16V18Z" fill="#222222"/>
<path d="M18 18H16V20H18V18Z" fill="#FF6A64"/>
<path d="M20 18H18V20H20V18Z" fill="#FF6A64"/>
<path d="M22 18H20V20H22V18Z" fill="#FF6A64"/>
<path d="M24 18H22V20H24V18Z" fill="#FF6A64"/>
<path d="M26 18H24V20H26V18Z" fill="#FF6A64"/>
<path d="M28 18H26V20H28V18Z" fill="#FF6A64"/>
<path d="M30 18H28V20H30V18Z" fill="#FF6A64"/>
<path d="M32 18H30V20H32V18Z" fill="#222222"/>
<path d="M34 18H32V20H34V18Z" fill="#222222"/>
<path d="M36 18H34V20H36V18Z" fill="#FF6A64"/>
<path d="M38 18H36V20H38V18Z" fill="#FF6A64"/>
<path d="M40 18H38V20H40V18Z" fill="#FF6A64"/>
<path d="M42 18H40V20H42V18Z" fill="#C94842"/>
<path d="M44 18H42V20H44V18Z" fill="#222222"/>
<path d="M4 20H2V22H4V20Z" fill="#222222"/>
<path d="M6 20H4V22H6V20Z" fill="#FF6A64"/>
<path d="M8 20H6V22H8V20Z" fill="#FF6A64"/>
<path d="M10 20H8V22H10V20Z" fill="#FF6A64"/>
<path d="M12 20H10V22H12V20Z" fill="#222222"/>
<path d="M14 20H12V22H14V20Z" fill="#222222"/>
<path d="M16 20H14V22H16V20Z" fill="#FAF9F6"/>
<path d="M18 20H16V22H18V20Z" fill="#222222"/>
<path d="M20 20H18V22H20V20Z" fill="#FF6A64"/>
<path d="M22 20H20V22H22V20Z" fill="#FF6A64"/>
<path d="M24 20H22V22H24V20Z" fill="#FF6A64"/>
<path d="M26 20H24V22H26V20Z" fill="#FF6A64"/>
<path d="M28 20H26V22H28V20Z" fill="#FF6A64"/>
<path d="M30 20H28V22H30V20Z" fill="#222222"/>
<path d="M32 20H30V22H32V20Z" fill="#222222"/>
<path d="M34 20H32V22H34V20Z" fill="#FAF9F6"/>
<path d="M36 20H34V22H36V20Z" fill="#222222"/>
<path d="M38 20H36V22H38V20Z" fill="#FF6A64"/>
<path d="M40 20H38V22H40V20Z" fill="#FF6A64"/>
<path d="M42 20H40V22H42V20Z" fill="#FF6A64"/>
<path d="M44 20H42V22H44V20Z" fill="#222222"/>
<path d="M2 22H0V24H2V22Z" fill="#222222"/>
<path d="M4 22H2V24H4V22Z" fill="#FF6A64"/>
<path d="M6 22H4V24H6V22Z" fill="#FF6A64"/>
<path d="M8 22H6V24H8V22Z" fill="#FF6A64"/>
<path d="M10 22H8V24H10V22Z" fill="#FF6A64"/>
<path d="M12 22H10V24H12V22Z" fill="#222222"/>
<path d="M14 22H12V24H14V22Z" fill="#222222"/>
<path d="M16 22H14V24H16V22Z" fill="#222222"/>
<path d="M18 22H16V24H18V22Z" fill="#222222"/>
<path d="M20 22H18V24H20V22Z" fill="#FF6A64"/>
<path d="M22 22H20V24H22V22Z" fill="#222222"/>
<path d="M24 22H22V24H24V22Z" fill="#222222"/>
<path d="M26 22H24V24H26V22Z" fill="#222222"/>
<path d="M28 22H26V24H28V22Z" fill="#FF6A64"/>
<path d="M30 22H28V24H30V22Z" fill="#222222"/>
<path d="M32 22H30V24H32V22Z" fill="#222222"/>
<path d="M34 22H32V24H34V22Z" fill="#222222"/>
<path d="M36 22H34V24H36V22Z" fill="#222222"/>
<path d="M38 22H36V24H38V22Z" fill="#FF6A64"/>
<path d="M40 22H38V24H40V22Z" fill="#FF6A64"/>
<path d="M42 22H40V24H42V22Z" fill="#FF6A64"/>
<path d="M44 22H42V24H44V22Z" fill="#FF6A64"/>
<path d="M46 22H44V24H46V22Z" fill="#222222"/>
<path d="M2 24H0V26H2V24Z" fill="#222222"/>
<path d="M4 24H2V26H4V24Z" fill="#FF6A64"/>
<path d="M6 24H4V26H6V24Z" fill="#FF6A64"/>
<path d="M8 24H6V26H8V24Z" fill="#FF9995"/>
<path d="M10 24H8V26H10V24Z" fill="#FF9995"/>
<path d="M12 24H10V26H12V24Z" fill="#FF9995"/>
<path d="M14 24H12V26H14V24Z" fill="#FF6A64"/>
<path d="M16 24H14V26H16V24Z" fill="#FF6A64"/>
<path d="M18 24H16V26H18V24Z" fill="#FF6A64"/>
<path d="M20 24H18V26H20V24Z" fill="#FF6A64"/>
<path d="M22 24H20V26H22V24Z" fill="#222222"/>
<path d="M24 24H22V26H24V24Z" fill="#222222"/>
<path d="M26 24H24V26H26V24Z" fill="#222222"/>
<path d="M28 24H26V26H28V24Z" fill="#FF6A64"/>
<path d="M30 24H28V26H30V24Z" fill="#FF6A64"/>
<path d="M32 24H30V26H32V24Z" fill="#FF6A64"/>
<path d="M34 24H32V26H34V24Z" fill="#FF6A64"/>
<path d="M36 24H34V26H36V24Z" fill="#FF9995"/>
<path d="M48 32H46V34H48V32Z" fill="#FF9995"/>
<path d="M48 34H46V36H48V34Z" fill="#FF9995"/>
<path d="M48 36H46V38H48V36Z" fill="#FF9995"/>
<path d="M46 32H44V34H46V32Z" fill="#FF6A64"/>
<path d="M46 34H44V36H46V34Z" fill="#FF9995"/>
<path d="M46 36H44V38H46V36Z" fill="#FF9995"/>
<path d="M44 32H42V34H44V32Z" fill="#FF9995"/>
<path d="M44 34H42V36H44V34Z" fill="#FF9995"/>
<path d="M44 36H42V38H44V36Z" fill="#FF9995"/>
<path d="M38 24H36V26H38V24Z" fill="#FF9995"/>
<path d="M40 24H38V26H40V24Z" fill="#FF9995"/>
<path d="M42 24H40V26H42V24Z" fill="#FF6A64"/>
<path d="M44 24H42V26H44V24Z" fill="#FF6A64"/>
<path d="M46 24H44V26H46V24Z" fill="#222222"/>
<path d="M2 26H0V28H2V26Z" fill="#222222"/>
<path d="M4 26H2V28H4V26Z" fill="#FF6A64"/>
<path d="M4 28H2V30H4V28Z" fill="#FF6A64"/>
<path d="M6 26H4V28H6V26Z" fill="#FF6A64"/>
<path d="M8 26H6V28H8V26Z" fill="#FF9995"/>
<path d="M10 26H8V28H10V26Z" fill="#FF9995"/>
<path d="M12 26H10V28H12V26Z" fill="#FF9995"/>
<path d="M14 26H12V28H14V26Z" fill="#FF6A64"/>
<path d="M16 26H14V28H16V26Z" fill="#FF6A64"/>
<path d="M18 26H16V28H18V26Z" fill="#FF9995"/>
<path d="M20 26H18V28H20V26Z" fill="#FF9995"/>
<path d="M22 26H20V28H22V26Z" fill="#C94842"/>
<path d="M24 26H22V28H24V26Z" fill="#222222"/>
<path d="M26 26H24V28H26V26Z" fill="#C94842"/>
<path d="M28 26H26V28H28V26Z" fill="#FF9995"/>
<path d="M30 26H28V28H30V26Z" fill="#FF9995"/>
<path d="M32 26H30V28H32V26Z" fill="#FF6A64"/>
<path d="M34 26H32V28H34V26Z" fill="#FF6A64"/>
<path d="M36 26H34V28H36V26Z" fill="#FF9995"/>
<path d="M38 26H36V28H38V26Z" fill="#FF9995"/>
<path d="M40 26H38V28H40V26Z" fill="#FF9995"/>
<path d="M42 26H40V28H42V26Z" fill="#FF6A64"/>
<path d="M44 26H42V28H44V26Z" fill="#FF6A64"/>
<path d="M46 26H44V28H46V26Z" fill="#222222"/>
<path d="M2 28H0V30H2V28Z" fill="#222222"/>
<path d="M4 30H2V32H4V30Z" fill="#FF6A64"/>
<path d="M6 28H4V30H6V28Z" fill="#FF6A64"/>
<path d="M12 28H10V30H12V28Z" fill="#FF9995"/>
<path d="M10 28H8V30H10V28Z" fill="#FF9995"/>
<path d="M14 28H12V30H14V28Z" fill="#FF6A64"/>
<path d="M16 28H14V30H16V28Z" fill="#FF9995"/>
<path d="M22 28H20V30H22V28Z" fill="#FF9995"/>
<path d="M24 28H22V30H24V28Z" fill="#C94842"/>
<path d="M26 28H24V30H26V28Z" fill="#FF9995"/>
<path d="M32 28H30V30H32V28Z" fill="#FF9995"/>
<path d="M34 28H32V30H34V28Z" fill="#FF6A64"/>
<path d="M38 28H36V30H38V28Z" fill="#FF9995"/>
<path d="M36 28H34V30H36V28Z" fill="#FF9995"/>
<path d="M42 28H40V30H42V28Z" fill="#FF6A64"/>
<path d="M44 28H42V30H44V28Z" fill="#FF6A64"/>
<path d="M46 28H44V30H46V28Z" fill="#222222"/>
<path d="M4 32H2V34H4V32Z" fill="#222222"/>
<path d="M6 30H4V32H6V30Z" fill="#FF6A64"/>
<path d="M8 30H6V32H8V30Z" fill="#FF6A64"/>
<path d="M10 30H8V32H10V30Z" fill="#FF6A64"/>
<path d="M12 30H10V32H12V30Z" fill="#FF6A64"/>
<path d="M8 28H6V30H8V28Z" fill="#FF6A64"/>
<path d="M14 30H12V32H14V30Z" fill="#FF6A64"/>
<path d="M16 30H14V32H16V30Z" fill="#FF9995"/>
<path d="M18 30H16V32H18V30Z" fill="#FF9995"/>
<path d="M20 30H18V32H20V30Z" fill="#222222"/>
<path d="M28 30H26V32H28V30Z" fill="#222222"/>
<path d="M22 34H20V36H22V34Z" fill="#FF6A64"/>
<path d="M20 32H18V34H20V32Z" fill="#FF6A64"/>
<path d="M22 32H20V34H22V32Z" fill="#222222"/>
<path d="M24 32H22V34H24V32Z" fill="#222222"/>
<path d="M26 32H24V34H26V32Z" fill="#222222"/>
<path d="M24 34H22V36H24V34Z" fill="#FF6A64"/>
<path d="M26 34H24V36H26V34Z" fill="#FF6A64"/>
<path d="M28 32H26V34H28V32Z" fill="#FF6A64"/>
<path d="M30 30H28V32H30V30Z" fill="#FF9995"/>
<path d="M32 30H30V32H32V30Z" fill="#FF9995"/>
<path d="M34 30H32V32H34V30Z" fill="#FF6A64"/>
<path d="M36 30H34V32H36V30Z" fill="#FF6A64"/>
<path d="M40 28H38V30H40V28Z" fill="#FF6A64"/>
<path d="M38 30H36V32H38V30Z" fill="#FF6A64"/>
<path d="M40 30H38V32H40V30Z" fill="#FF6A64"/>
<path d="M42 30H40V32H42V30Z" fill="#FF6A64"/>
<path d="M50 32H48V34H50V32Z" fill="#222222"/>
<path d="M4 34H2V36H4V34Z" fill="#222222"/>
<path d="M6 32H4V34H6V32Z" fill="#FF6A64"/>
<path d="M8 32H6V34H8V32Z" fill="#FF6A64"/>
<path d="M8 34H6V36H8V34Z" fill="#FF6A64"/>
<path d="M10 32H8V34H10V32Z" fill="#FF6A64"/>
<path d="M10 34H8V36H10V34Z" fill="#FF6A64"/>
<path d="M12 32H10V34H12V32Z" fill="#FF6A64"/>
<path d="M12 34H10V36H12V34Z" fill="#FF6A64"/>
<path d="M14 32H12V34H14V32Z" fill="#FF6A64"/>
<path d="M16 32H14V34H16V32Z" fill="#FF9995"/>
<path d="M16 34H14V36H16V34Z" fill="#FF9995"/>
<path d="M18 32H16V34H18V32Z" fill="#FF9995"/>
<path d="M32 32H30V34H32V32Z" fill="#FF9995"/>
<path d="M32 34H30V36H32V34Z" fill="#FF9995"/>
<path d="M30 32H28V34H30V32Z" fill="#FF9995"/>
<path d="M34 32H32V34H34V32Z" fill="#FF6A64"/>
<path d="M36 32H34V34H36V32Z" fill="#FF6A64"/>
<path d="M36 34H34V36H36V34Z" fill="#FF6A64"/>
<path d="M38 32H36V34H38V32Z" fill="#FF6A64"/>
<path d="M38 34H36V36H38V34Z" fill="#FF6A64"/>
<path d="M40 32H38V34H40V32Z" fill="#FF6A64"/>
<path d="M40 34H38V36H40V34Z" fill="#FF6A64"/>
<path d="M50 34H48V36H50V34Z" fill="#222222"/>
<path d="M50 36H48V38H50V36Z" fill="#222222"/>
<path d="M6 36H4V38H6V36Z" fill="#222222"/>
<path d="M8 36H6V38H8V36Z" fill="#222222"/>
<path d="M10 36H8V38H10V36Z" fill="#C94842"/>
<path d="M6 34H4V36H6V34Z" fill="#C94842"/>
<path d="M8 38H6V40H8V38Z" fill="#C94842"/>
<path d="M12 40H10V42H12V40Z" fill="#C94842"/>
<path d="M2 30H0V32H2V30Z" fill="#222222"/>
<path d="M12 36H10V38H12V36Z" fill="#C94842"/>
<path d="M14 34H12V36H14V34Z" fill="#FF6A64"/>
<path d="M14 36H12V38H14V36Z" fill="#FF6A64"/>
<path d="M16 36H14V38H16V36Z" fill="#FF6A64"/>
<path d="M18 34H16V36H18V34Z" fill="#FF9995"/>
<path d="M18 36H16V38H18V36Z" fill="#FF9995"/>
<path d="M20 34H18V36H20V34Z" fill="#FF9995"/>
<path d="M18 28H16V30H18V28Z" fill="#FF9995"/>
<path d="M20 28H18V30H20V28Z" fill="#FF9995"/>
<path d="M28 28H26V30H28V28Z" fill="#FF9995"/>
<path d="M30 28H28V30H30V28Z" fill="#FF9995"/>
<path d="M22 30H20V32H22V30Z" fill="#FF9995"/>
<path d="M24 30H22V32H24V30Z" fill="#C94842"/>
<path d="M26 30H24V32H26V30Z" fill="#FF9995"/>
<path d="M30 34H28V36H30V34Z" fill="#FF9995"/>
<path d="M30 36H28V38H30V36Z" fill="#FF9995"/>
<path d="M28 34H26V36H28V34Z" fill="#FF9995"/>
<path d="M32 36H30V38H32V36Z" fill="#FF6A64"/>
<path d="M34 34H32V36H34V34Z" fill="#FF6A64"/>
<path d="M34 36H32V38H34V36Z" fill="#FF6A64"/>
<path d="M36 36H34V38H36V36Z" fill="#C94842"/>
<path d="M38 36H36V38H38V36Z" fill="#C94842"/>
<path d="M40 38H38V40H40V38Z" fill="#FF6A64"/>
<path d="M36 40H34V42H36V40Z" fill="#C94842"/>
<path d="M46 30H44V32H46V30Z" fill="#222222"/>
<path d="M44 30H42V32H44V30Z" fill="#222222"/>
<path d="M42 32H40V34H42V32Z" fill="#222222"/>
<path d="M42 34H40V36H42V34Z" fill="#222222"/>
<path d="M48 30H46V32H48V30Z" fill="#222222"/>
<path d="M40 36H38V38H40V36Z" fill="#222222"/>
<path d="M42 36H40V38H42V36Z" fill="#C94842"/>
<path d="M10 38H8V40H10V38Z" fill="#222222"/>
<path d="M14 38H12V40H14V38Z" fill="#C94842"/>
<path d="M16 38H14V40H16V38Z" fill="#C94842"/>
<path d="M18 38H16V40H18V38Z" fill="#FF6A64"/>
<path d="M20 36H18V38H20V36Z" fill="#FF9995"/>
<path d="M20 38H18V40H20V38Z" fill="#FF6A64"/>
<path d="M22 36H20V38H22V36Z" fill="#FF9995"/>
<path d="M22 38H20V40H22V38Z" fill="#FF6A64"/>
<path d="M24 36H22V38H24V36Z" fill="#FF9995"/>
<path d="M24 38H22V40H24V38Z" fill="#FF6A64"/>
<path d="M26 36H24V38H26V36Z" fill="#FF9995"/>
<path d="M26 38H24V40H26V38Z" fill="#FF6A64"/>
<path d="M28 36H26V38H28V36Z" fill="#FF9995"/>
<path d="M28 38H26V40H28V38Z" fill="#FF6A64"/>
<path d="M30 38H28V40H30V38Z" fill="#FF6A64"/>
<path d="M32 38H30V40H32V38Z" fill="#C94842"/>
<path d="M34 38H32V40H34V38Z" fill="#C94842"/>
<path d="M38 38H36V40H38V38Z" fill="#222222"/>
<path d="M14 40H12V42H14V40Z" fill="#222222"/>
<path d="M12 38H10V40H12V38Z" fill="#222222"/>
<path d="M16 40H14V42H16V40Z" fill="#222222"/>
<path d="M18 40H16V42H18V40Z" fill="#C94842"/>
<path d="M20 40H18V42H20V40Z" fill="#C94842"/>
<path d="M22 40H20V42H22V40Z" fill="#C94842"/>
<path d="M24 40H22V42H24V40Z" fill="#C94842"/>
<path d="M26 40H24V42H26V40Z" fill="#C94842"/>
<path d="M28 40H26V42H28V40Z" fill="#C94842"/>
<path d="M30 40H28V42H30V40Z" fill="#C94842"/>
<path d="M32 40H30V42H32V40Z" fill="#222222"/>
<path d="M34 40H32V42H34V40Z" fill="#222222"/>
<path d="M36 38H34V40H36V38Z" fill="#222222"/>
<path d="M18 42H16V44H18V42Z" fill="#222222"/>
<path d="M20 42H18V44H20V42Z" fill="#222222"/>
<path d="M22 42H20V44H22V42Z" fill="#222222"/>
<path d="M24 42H22V44H24V42Z" fill="#222222"/>
<path d="M26 42H24V44H26V42Z" fill="#222222"/>
<path d="M28 42H26V44H28V42Z" fill="#222222"/>
<path d="M30 42H28V44H30V42Z" fill="#222222"/>
<path d="M38 0H36V2H38V0Z" fill="#222222"/>
<path d="M8 0H6V2H8V0Z" fill="#222222"/>
<path d="M40 0H38V2H40V0Z" fill="#222222"/>
<path d="M10 0H8V2H10V0Z" fill="#222222"/>
<path d="M18 8H16V10H18V8Z" fill="#222222"/>
<path d="M20 6H18V8H20V6Z" fill="#222222"/>
<path d="M18 6H16V8H18V6Z" fill="#222222"/>
<path d="M30 8H28V10H30V8Z" fill="#222222"/>
<path d="M28 6H26V8H28V6Z" fill="#222222"/>
<path d="M30 6H28V8H30V6Z" fill="#222222"/>
</svg>
