<svg xmlns="http://www.w3.org/2000/svg" width="80" height="58" viewBox="0 0 80 58" fill="none">
  <rect y="42" width="8" height="16" fill="#5CA1F2"/>
  <rect x="24" y="28" width="8" height="30" fill="#5CA1F2"/>
  <rect x="72" y="38" width="8" height="20" fill="#5CA1F2"/>
  <path fill-rule="evenodd" clip-rule="evenodd" d="M56 14H48V58H56V14ZM52 24C53.1046 24 54 23.1046 54 22C54 20.8954 53.1046 20 52 20C50.8954 20 50 20.8954 50 22C50 23.1046 50.8954 24 52 24Z" fill="#5CA1F2"/>
  <path fill-rule="evenodd" clip-rule="evenodd" d="M30.8391 3.97192C30.9434 3.66711 31 3.34017 31 3C31 1.34315 29.6569 0 28 0C26.3431 0 25 1.34315 25 3C25 3.46309 25.1049 3.90168 25.2923 4.29328L5.29327 24.2923C4.90167 24.1049 4.46309 24 4 24C2.34315 24 1 25.3431 1 27C1 28.6569 2.34315 30 4 30C5.65685 30 7 28.6569 7 27C7 26.5368 6.89502 26.0981 6.70756 25.7064L26.7064 5.70756C27.0981 5.89502 27.5368 6 28 6C28.5871 6 29.1349 5.83133 29.5974 5.53981L49.1611 21.0277C49.0567 21.3326 49 21.6597 49 22C49 23.6569 50.3431 25 52 25C53.6569 25 55 23.6569 55 22C55 21.808 54.982 21.6201 54.9475 21.4381L74.0605 10.2888C74.5835 10.7324 75.2605 11 76 11C77.6569 11 79 9.65685 79 8C79 6.34315 77.6569 5 76 5C74.3431 5 73 6.34315 73 8C73 8.1919 73.018 8.3796 73.0525 8.56148L53.9392 19.7109C53.4162 19.2675 52.7393 19 52 19C51.413 19 50.8654 19.1686 50.4029 19.46L30.8391 3.97192ZM28 4C28.5523 4 29 3.55228 29 3C29 2.44772 28.5523 2 28 2C27.4477 2 27 2.44772 27 3C27 3.55228 27.4477 4 28 4ZM4 28C4.55228 28 5 27.5523 5 27C5 26.4477 4.55228 26 4 26C3.44772 26 3 26.4477 3 27C3 27.5523 3.44772 28 4 28ZM53 22C53 22.5523 52.5523 23 52 23C51.4477 23 51 22.5523 51 22C51 21.4477 51.4477 21 52 21C52.5523 21 53 21.4477 53 22ZM76 9C76.5523 9 77 8.55228 77 8C77 7.44772 76.5523 7 76 7C75.4477 7 75 7.44772 75 8C75 8.55228 75.4477 9 76 9Z" fill="#F5807B"/>
</svg>
