<svg xmlns="http://www.w3.org/2000/svg" width="56" height="56" viewBox="0 0 56 56" fill="none">
  <path opacity="0.5" fill-rule="evenodd" clip-rule="evenodd" d="M8.02472 28.9999L-4.87715e-06 28.9999C0.245105 35.9776 3.04502 42.3059 7.49359 47.0791L13.1639 41.4123C10.1632 38.0951 8.25945 33.7669 8.02472 28.9999Z" fill="#F5807B"/>
  <path fill-rule="evenodd" clip-rule="evenodd" d="M47.9754 27L56 27C55.4731 11.9991 43.1387 -3.793e-06 28 -3.13127e-06C12.8613 -4.37688e-06 0.52688 11.9991 0 27L8.02456 27C8.5456 16.4189 17.2896 8 28 8C38.7104 8 47.4544 16.4189 47.9754 27Z" fill="#F5807B"/>
  <path fill-rule="evenodd" clip-rule="evenodd" d="M47.975 29C47.4539 39.5811 38.7099 48 27.9995 48C22.8343 48 18.1264 46.0419 14.5776 42.8276L8.90821 48.4935C13.9116 53.1508 20.6226 56 27.9995 56C43.1383 56 55.4726 44.0008 55.9995 29L47.975 29Z" fill="#5CA1F2"/>
</svg>
