<svg xmlns="http://www.w3.org/2000/svg" width="106" height="50" viewBox="0 0 106 50" fill="none">
  <path fill-rule="evenodd" clip-rule="evenodd" d="M71 19C72.207 19 73.2475 18.2872 73.7235 17.2596L100.09 19.7315C100.416 21.0348 101.595 22 103 22C104.657 22 106 20.6569 106 19C106 17.3431 104.657 16 103 16C101.793 16 100.753 16.7127 100.277 17.7402L73.9101 15.2684C73.5835 13.9651 72.4045 13 71 13C69.3431 13 68 14.3431 68 16C68 16.248 68.0301 16.489 68.0868 16.7195L34.8134 38.6099C34.3097 38.2272 33.6814 38 33 38C31.8183 38 30.7962 38.6832 30.3071 39.6762L0 36.1107V38.1245L30.0734 41.6625C30.375 43.0006 31.5708 44 33 44C34.6569 44 36 42.6569 36 41C36 40.752 35.9699 40.5109 35.9131 40.2804L69.1865 18.39C69.6902 18.7728 70.3186 19 71 19ZM71 17C71.5523 17 72 16.5523 72 16C72 15.4477 71.5523 15 71 15C70.4477 15 70 15.4477 70 16C70 16.5523 70.4477 17 71 17ZM104 19C104 19.5523 103.552 20 103 20C102.448 20 102 19.5523 102 19C102 18.4477 102.448 18 103 18C103.552 18 104 18.4477 104 19ZM33 42C33.5523 42 34 41.5523 34 41C34 40.4477 33.5523 40 33 40C32.4477 40 32 40.4477 32 41C32 41.5523 32.4477 42 33 42Z" fill="#5CA1F2"/>
  <path fill-rule="evenodd" clip-rule="evenodd" d="M103 6C104.657 6 106 4.65685 106 3C106 1.34315 104.657 0 103 0C101.343 0 100 1.34315 100 3C100 3.37316 100.068 3.73041 100.193 4.05998L72.517 27.4113C72.0719 27.1499 71.5535 27 71 27C69.9951 27 69.1055 27.4941 68.5611 28.2527L35.995 18.8256C35.9047 17.2499 34.5983 16 33 16C31.3431 16 30 17.3431 30 19C30 19.3966 30.077 19.7753 30.2168 20.1218L0 46.7837V49.4509L31.5401 21.6214C31.9722 21.8626 32.47 22 33 22C34.0051 22 34.8948 21.5057 35.4392 20.7469L68.005 30.1738C68.095 31.7498 69.4015 33 71 33C72.6569 33 74 31.6569 74 30C74 29.6266 73.9318 29.2692 73.8072 28.9395L101.483 5.58845C101.928 5.85001 102.446 6 103 6ZM103 4C103.552 4 104 3.55228 104 3C104 2.44772 103.552 2 103 2C102.448 2 102 2.44772 102 3C102 3.55228 102.448 4 103 4ZM33 20C33.5523 20 34 19.5523 34 19C34 18.4477 33.5523 18 33 18C32.4477 18 32 18.4477 32 19C32 19.5523 32.4477 20 33 20ZM72 30C72 30.5523 71.5523 31 71 31C70.4477 31 70 30.5523 70 30C70 29.4477 70.4477 29 71 29C71.5523 29 72 29.4477 72 30Z" fill="#F5807B"/>
</svg>
