<svg xmlns="http://www.w3.org/2000/svg" width="106" height="53" viewBox="0 0 106 53" fill="none">
  <path opacity="0.25" d="M99.3327 5.0004L101.519 4.34437C101.885 4.74713 102.413 5 103 5C104 5 104.829 4.26586 104.977 3.30706L106 3V34L101 32V33.6471L72.9924 31.1758C72.9974 31.1179 73 31.0593 73 31C73 29.8954 72.1046 29 71 29C69.8954 29 69 29.8954 69 31C69 31.176 69.0227 31.3466 69.0654 31.5092L34.9346 40.4909C34.7095 39.6329 33.9286 39 33 39C31.9745 39 31.1292 39.7719 31.0135 40.7663L0 37.1177V28.7059L33 19L69.0007 19.9474C69.0002 19.9649 69 19.9824 69 20C69 21.1046 69.8954 22 71 22C72.1046 22 73 21.1046 73 20C73 19.6619 72.9161 19.3433 72.768 19.0641L99.3327 5.0004Z" fill="#F5807B"/>
  <path fill-rule="evenodd" clip-rule="evenodd" d="M73.7231 32.2606C73.2469 33.2877 72.2066 34 71 34C69.969 34 69.0594 33.4799 68.5194 32.6877L35.9899 41.2481C35.8637 42.7889 34.5733 44 33 44C31.5711 44 30.3756 43.0011 30.0736 41.6635L0 38.1254V36.1116L30.3067 39.6771C30.7956 38.6836 31.8179 38 33 38C34.0317 38 34.9417 38.5208 35.4816 39.3138L68.01 30.7537C68.1352 29.2121 69.4261 28 71 28C72.4048 28 73.5841 28.9656 73.9104 30.2693L100.276 32.7412C100.752 31.7134 101.793 31.0004 103 31.0004C104.657 31.0004 106 32.3436 106 34.0004C106 35.6573 104.657 37.0004 103 37.0004C101.596 37.0004 100.417 36.0355 100.09 34.7325L73.7231 32.2606ZM71 32C71.5523 32 72 31.5523 72 31C72 30.4477 71.5523 30 71 30C70.4477 30 70 30.4477 70 31C70 31.5523 70.4477 32 71 32ZM33 42C33.5523 42 34 41.5523 34 41C34 40.4477 33.5523 40 33 40C32.4477 40 32 40.4477 32 41C32 41.5523 32.4477 42 33 42ZM104 34.0004C104 34.5527 103.552 35.0004 103 35.0004C102.448 35.0004 102 34.5527 102 34.0004C102 33.4481 102.448 33.0004 103 33.0004C103.552 33.0004 104 33.4481 104 34.0004Z" fill="#5CA1F2"/>
  <path fill-rule="evenodd" clip-rule="evenodd" d="M103 6C104.657 6 106 4.65685 106 3C106 1.34315 104.657 0 103 0C101.343 0 100 1.34315 100 3C100 3.15094 100.011 3.29928 100.033 3.44424L73.0288 17.79C72.4947 17.2995 71.7823 17 71 17C69.7216 17 68.6299 17.7997 68.1979 18.9261L35.8547 18.075C35.4647 16.8708 34.3341 16 33 16C31.3972 16 30.0879 17.257 30.0042 18.8389L0 27.6637V29.7484L30.5686 20.7577C31.1136 21.5104 31.9996 22 33 22C34.2783 22 35.3699 21.2005 35.8019 20.0743L68.1454 20.9254C68.5355 22.1294 69.6661 23 71 23C72.6569 23 74 21.6569 74 20C74 19.8492 73.9889 19.701 73.9674 19.5561L100.971 5.21022C101.505 5.70063 102.218 6 103 6ZM103 4C103.552 4 104 3.55228 104 3C104 2.44772 103.552 2 103 2C102.448 2 102 2.44772 102 3C102 3.55228 102.448 4 103 4ZM71 21C71.5523 21 72 20.5523 72 20C72 19.4477 71.5523 19 71 19C70.4477 19 70 19.4477 70 20C70 20.5523 70.4477 21 71 21ZM33 20C33.5523 20 34 19.5523 34 19C34 18.4477 33.5523 18 33 18C32.4477 18 32 18.4477 32 19C32 19.5523 32.4477 20 33 20Z" fill="#F5807B"/>
  <path opacity="0.25" d="M0 53L106 53.0001V34.918C106 34.3989 105.603 33.966 105.085 33.9217L104.998 33.9142C104.999 33.9427 105 33.9713 105 34.0001C105 35.1047 104.105 36.0001 103 36.0001C101.895 36.0001 101 35.1047 101 34.0001C101 33.8544 101.016 33.7123 101.045 33.5754L72.9928 31.1709C72.9061 32.1955 72.047 33.0001 71 33.0001C70.0714 33.0001 69.2906 32.3672 69.0654 31.5092L34.9346 40.491C34.9773 40.6535 35 40.8241 35 41C35 42.1046 34.1046 43 33 43C31.8954 43 31 42.1046 31 41C31 40.921 31.0046 40.843 31.0135 40.7664L0 37.1177V53Z" fill="#5CA1F2"/>
</svg>
