<svg xmlns="http://www.w3.org/2000/svg" width="55" height="25" viewBox="0 0 55 25" fill="none">
  <path d="M54.4531 15.3438C54.4531 16.8125 54.2812 18.1094 53.9375 19.2344C53.6042 20.349 53.1198 21.2812 52.4844 22.0312C51.849 22.7917 51.0729 23.3646 50.1562 23.75C49.2396 24.1354 48.2083 24.3281 47.0625 24.3281C45.9271 24.3281 44.901 24.1354 43.9844 23.75C43.0677 23.3646 42.2917 22.7917 41.6562 22.0312C41.0104 21.2812 40.5104 20.349 40.1562 19.2344C39.8125 18.1094 39.6406 16.8125 39.6406 15.3438V9.90625C39.6406 8.4375 39.8125 7.14583 40.1562 6.03125C40.5 4.90625 40.9948 3.96354 41.6406 3.20312C42.276 2.45312 43.0469 1.88542 43.9531 1.5C44.8698 1.11458 45.8958 0.921875 47.0312 0.921875C48.1771 0.921875 49.2083 1.11458 50.125 1.5C51.0417 1.88542 51.8229 2.45312 52.4688 3.20312C53.1042 3.96354 53.5938 4.90625 53.9375 6.03125C54.2812 7.14583 54.4531 8.4375 54.4531 9.90625V15.3438ZM44.0156 13.4688L50.0781 8.95312C50.0573 8.09896 49.9635 7.36979 49.7969 6.76562C49.6406 6.15104 49.4062 5.66146 49.0938 5.29688C48.8542 5.00521 48.5573 4.79167 48.2031 4.65625C47.8594 4.51042 47.4688 4.4375 47.0312 4.4375C46.5417 4.4375 46.1094 4.53125 45.7344 4.71875C45.3698 4.89583 45.0625 5.16667 44.8125 5.53125C44.5417 5.91667 44.3385 6.41667 44.2031 7.03125C44.0781 7.64583 44.0156 8.375 44.0156 9.21875V11.7344C44.0156 12.2344 44.0156 12.5677 44.0156 12.7344C44.0156 12.901 44.0156 13.1458 44.0156 13.4688ZM50.0781 16V13.3594C50.0781 13.0156 50.0781 12.7656 50.0781 12.6094C50.0781 12.4427 50.0781 12.2083 50.0781 11.9062L44.0156 16.4062C44.0365 17.0938 44.1042 17.7031 44.2188 18.2344C44.3438 18.7656 44.5156 19.2083 44.7344 19.5625C44.9844 19.9896 45.3021 20.3073 45.6875 20.5156C46.0729 20.724 46.5312 20.8281 47.0625 20.8281C47.5521 20.8281 47.9844 20.7396 48.3594 20.5625C48.7344 20.375 49.0469 20.0938 49.2969 19.7188C49.5573 19.3229 49.75 18.8177 49.875 18.2031C50.0104 17.5781 50.0781 16.8438 50.0781 16Z" fill="#F5807B"/>
  <path d="M35.2969 24H19.7812V21.0312L27.1406 13.125C27.7135 12.5 28.1979 11.9323 28.5938 11.4219C28.9896 10.9115 29.3125 10.4427 29.5625 10.0156C29.8021 9.59896 29.974 9.20833 30.0781 8.84375C30.1927 8.47917 30.25 8.125 30.25 7.78125C30.25 7.27083 30.1771 6.81771 30.0312 6.42188C29.8854 6.02604 29.6823 5.6875 29.4219 5.40625C29.151 5.13542 28.8281 4.92708 28.4531 4.78125C28.0885 4.63542 27.6823 4.5625 27.2344 4.5625C26.651 4.5625 26.1354 4.64583 25.6875 4.8125C25.25 4.96875 24.8854 5.20312 24.5938 5.51562C24.2917 5.83854 24.0625 6.23958 23.9062 6.71875C23.75 7.19792 23.6719 7.74479 23.6719 8.35938H19.3125C19.3125 7.34896 19.5052 6.39583 19.8906 5.5C20.276 4.59375 20.8229 3.80208 21.5312 3.125C22.2292 2.44792 23.0729 1.91667 24.0625 1.53125C25.0625 1.13542 26.1667 0.9375 27.375 0.9375C28.5312 0.9375 29.5521 1.09896 30.4375 1.42188C31.3333 1.74479 32.0833 2.19792 32.6875 2.78125C33.2812 3.36458 33.7344 4.06771 34.0469 4.89062C34.3594 5.70312 34.5156 6.60417 34.5156 7.59375C34.5156 8.34375 34.3958 9.0625 34.1562 9.75C33.9271 10.4271 33.599 11.099 33.1719 11.7656C32.7344 12.4323 32.2135 13.1146 31.6094 13.8125C31.0052 14.5 30.3333 15.224 29.5938 15.9844L25.3125 20.5156H35.2969V24Z" fill="#F5807B"/>
  <path d="M5.57812 10.7188H7.9375C8.5625 10.7188 9.09896 10.6354 9.54688 10.4688C10.0052 10.2917 10.375 10.0469 10.6562 9.73438C10.9167 9.46354 11.1094 9.13542 11.2344 8.75C11.3698 8.35417 11.4375 7.92708 11.4375 7.46875C11.4375 7.02083 11.3698 6.61458 11.2344 6.25C11.1094 5.875 10.9167 5.55208 10.6562 5.28125C10.3958 5.02083 10.0625 4.81771 9.65625 4.67188C9.26042 4.52604 8.79688 4.45312 8.26562 4.45312C7.82812 4.45312 7.41667 4.51562 7.03125 4.64062C6.65625 4.76562 6.32812 4.94271 6.04688 5.17188C5.75521 5.41146 5.52604 5.69792 5.35938 6.03125C5.19271 6.36458 5.10938 6.73958 5.10938 7.15625H0.765625C0.765625 6.22917 0.953125 5.38542 1.32812 4.625C1.71354 3.86458 2.23958 3.20833 2.90625 2.65625C3.57292 2.11458 4.35417 1.69271 5.25 1.39062C6.15625 1.08854 7.13021 0.9375 8.17188 0.9375C9.29688 0.9375 10.3281 1.07812 11.2656 1.35938C12.2031 1.63021 13.0052 2.03646 13.6719 2.57812C14.3385 3.13021 14.8542 3.8125 15.2188 4.625C15.5938 5.42708 15.7812 6.35938 15.7812 7.42188C15.7812 7.91146 15.7083 8.39583 15.5625 8.875C15.4167 9.34375 15.2031 9.79167 14.9219 10.2188C14.6406 10.6458 14.2917 11.0417 13.875 11.4062C13.4583 11.7604 12.9792 12.0677 12.4375 12.3281C13.0729 12.5573 13.6198 12.849 14.0781 13.2031C14.5469 13.5573 14.9323 13.9583 15.2344 14.4062C15.5365 14.8646 15.7604 15.3646 15.9062 15.9062C16.0521 16.4479 16.125 17.0208 16.125 17.625C16.125 18.6875 15.9219 19.6354 15.5156 20.4688C15.1094 21.3021 14.5521 22 13.8438 22.5625C13.1354 23.1354 12.2917 23.5729 11.3125 23.875C10.3438 24.1667 9.29688 24.3125 8.17188 24.3125C7.20312 24.3125 6.25521 24.1823 5.32812 23.9219C4.41146 23.651 3.59375 23.2448 2.875 22.7031C2.15625 22.1719 1.57812 21.5 1.14062 20.6875C0.713542 19.875 0.5 18.9167 0.5 17.8125H4.84375C4.84375 18.25 4.92708 18.6562 5.09375 19.0312C5.26042 19.3958 5.5 19.7083 5.8125 19.9688C6.11458 20.2396 6.47396 20.4531 6.89062 20.6094C7.30729 20.7552 7.76562 20.8281 8.26562 20.8281C8.82812 20.8281 9.33333 20.75 9.78125 20.5938C10.2292 20.4375 10.6042 20.2083 10.9062 19.9062C11.1979 19.6354 11.4167 19.3021 11.5625 18.9062C11.7188 18.5104 11.7969 18.0677 11.7969 17.5781C11.7969 16.9635 11.7083 16.4375 11.5312 16C11.3542 15.5625 11.099 15.2031 10.7656 14.9219C10.4219 14.6406 10.0104 14.4323 9.53125 14.2969C9.0625 14.1615 8.53125 14.0938 7.9375 14.0938H5.57812V10.7188Z" fill="#F5807B"/>
</svg>
